# xmcd
# 
# Track frame offsets:
#     150
#     18382
#     33231
#     56844
#     78031
#     94972
#     109052
#     128688
#     145564
#     165080
#     177544
#     192317
#     206729
#     224101
#     241846
#     260304
#     280359
#     297262
#     317215
#     337020
# 
# Disc length: 4794
# 
# Revision: 0
# Processed by: cddbd v1.5.2PL0 Copyright (c) Steve Scherf et al.
# Submitted via: fre:ac v1.0.31
# 
DISCID=2912b814
DTITLE=Gabriel Garcia Marquez - Hundert Jahre Einsamkeit CD 04
DYEAR=0
DGENRE=
TTITLE0=Titel
TTITLE1=Titel
TTITLE2=Titel
TTITLE3=Titel
TTITLE4=Titel
TTITLE5=Titel
TTITLE6=Titel
TTITLE7=Titel
TTITLE8=Titel
TTITLE9=Titel
TTITLE10=Titel
TTITLE11=Titel
TTITLE12=Titel
TTITLE13=Titel
TTITLE14=Titel
TTITLE15=Titel
TTITLE16=Titel
TTITLE17=Titel
TTITLE18=Titel
TTITLE19=Titel
EXTD=
EXTT0=
EXTT1=
EXTT2=
EXTT3=
EXTT4=
EXTT5=
EXTT6=
EXTT7=
EXTT8=
EXTT9=
EXTT10=
EXTT11=
EXTT12=
EXTT13=
EXTT14=
EXTT15=
EXTT16=
EXTT17=
EXTT18=
EXTT19=
PLAYORDER=
